<svg width="600" height="135" viewBox="0 0 600 135" fill="none" xmlns="http://www.w3.org/2000/svg">
<path d="M409.825 13.788L412.004 13.4294V16.2623H415.357V18.0732H412.004V21.8922C412.004 22.6452 412.126 23.1831 412.365 23.5059C412.604 23.8286 413.014 23.99 413.59 23.99C413.987 23.99 414.334 23.9482 414.636 23.8645C414.947 23.7808 415.196 23.7031 415.376 23.6314L415.737 25.3526C415.484 25.4602 415.153 25.5678 414.744 25.6754C414.334 25.7949 413.856 25.8547 413.302 25.8547C412.63 25.8547 412.063 25.765 411.608 25.5857C411.162 25.4064 410.808 25.1494 410.546 24.8147C410.281 24.4681 410.094 24.0557 409.986 23.5776C409.878 23.0875 409.825 22.5317 409.825 21.9101V13.788ZM416.782 20.9957C416.782 20.1709 416.903 19.4478 417.142 18.8262C417.395 18.2046 417.726 17.6907 418.135 17.2843C418.545 16.8659 419.013 16.5551 419.541 16.3519C420.069 16.1368 420.609 16.0292 421.163 16.0292C422.461 16.0292 423.47 16.4296 424.191 17.2305C424.925 18.0313 425.288 19.2266 425.288 20.8164C425.288 20.936 425.285 21.0734 425.272 21.2288C425.272 21.3722 425.266 21.5037 425.252 21.6233H419.036C419.095 22.3763 419.361 22.962 419.829 23.3804C420.311 23.7868 420.999 23.99 421.9 23.99C422.431 23.99 422.91 23.9422 423.342 23.8465C423.788 23.7509 424.135 23.6493 424.387 23.5417L424.676 25.3168C424.558 25.3765 424.387 25.4423 424.171 25.514C423.968 25.5738 423.729 25.6276 423.45 25.6754C423.188 25.7351 422.9 25.783 422.585 25.8188C422.274 25.8547 421.956 25.8726 421.632 25.8726C420.802 25.8726 420.082 25.7531 419.469 25.514C418.856 25.263 418.351 24.9223 417.955 24.492C417.559 24.0497 417.264 23.5358 417.07 22.9501C416.88 22.3524 416.782 21.7009 416.782 20.9957ZM423.109 20.0275C423.109 19.7287 423.067 19.4478 422.982 19.1848C422.9 18.9099 422.772 18.6768 422.605 18.4856C422.447 18.2824 422.251 18.127 422.008 18.0194C421.782 17.8998 421.504 17.8401 421.179 17.8401C420.845 17.8401 420.55 17.9058 420.298 18.0373C420.046 18.1569 419.829 18.3182 419.649 18.5214C419.482 18.7246 419.348 18.9577 419.253 19.2207C419.158 19.4837 419.089 19.7526 419.053 20.0275H423.109ZM427.081 20.9599C427.081 20.2666 427.189 19.6211 427.405 19.0234C427.622 18.4138 427.926 17.8879 428.323 17.4456C428.732 17.0034 429.224 16.6567 429.801 16.4057C430.377 16.1547 431.026 16.0292 431.747 16.0292C432.635 16.0292 433.477 16.1905 434.27 16.5133L433.802 18.2883C433.549 18.1807 433.261 18.0911 432.936 18.0194C432.625 17.9477 432.288 17.9118 431.927 17.9118C431.075 17.9118 430.426 18.1807 429.981 18.7186C429.535 19.2446 429.316 19.9916 429.316 20.9599C429.316 21.8922 429.525 22.6333 429.945 23.1831C430.364 23.721 431.075 23.99 432.071 23.99C432.445 23.99 432.812 23.9541 433.172 23.8824C433.533 23.8107 433.844 23.721 434.11 23.6135L434.414 25.4064C434.175 25.526 433.808 25.6336 433.317 25.7292C432.835 25.8248 432.337 25.8726 431.819 25.8726C431.013 25.8726 430.312 25.7531 429.712 25.514C429.122 25.263 428.631 24.9223 428.234 24.492C427.848 24.0497 427.559 23.5298 427.369 22.9321C427.176 22.3225 427.081 21.6651 427.081 20.9599ZM436.102 16.5671C436.525 16.4475 437.068 16.334 437.743 16.2264C438.415 16.1188 439.159 16.065 439.978 16.065C440.745 16.065 441.391 16.1726 441.905 16.3878C442.423 16.591 442.832 16.8838 443.131 17.2663C443.445 17.6369 443.661 18.0911 443.779 18.629C443.914 19.1549 443.979 19.7347 443.979 20.3682V25.6395H441.797V20.7088C441.797 20.2068 441.761 19.7825 441.689 19.4358C441.63 19.0772 441.522 18.7904 441.364 18.5752C441.22 18.3481 441.017 18.1867 440.752 18.0911C440.499 17.9835 440.188 17.9297 439.814 17.9297C439.539 17.9297 439.251 17.9477 438.949 17.9835C438.651 18.0194 438.428 18.0493 438.284 18.0732V25.6395H436.102V16.5671ZM455.169 20.9419C455.169 21.683 455.061 22.3584 454.845 22.968C454.629 23.5776 454.324 24.0976 453.928 24.5279C453.531 24.9582 453.049 25.2929 452.486 25.5319C451.932 25.771 451.319 25.8905 450.648 25.8905C449.973 25.8905 449.36 25.771 448.809 25.5319C448.255 25.2929 447.78 24.9582 447.384 24.5279C446.987 24.0976 446.676 23.5776 446.447 22.968C446.23 22.3584 446.122 21.683 446.122 20.9419C446.122 20.2008 446.23 19.5314 446.447 18.9338C446.676 18.3242 446.987 17.8042 447.384 17.3739C447.793 16.9436 448.272 16.6149 448.826 16.3878C449.379 16.1487 449.986 16.0292 450.648 16.0292C451.306 16.0292 451.912 16.1487 452.466 16.3878C453.03 16.6149 453.511 16.9436 453.908 17.3739C454.304 17.8042 454.612 18.3242 454.829 18.9338C455.055 19.5314 455.169 20.2008 455.169 20.9419ZM452.935 20.9419C452.935 20.0096 452.732 19.2745 452.322 18.7366C451.925 18.1867 451.368 17.9118 450.648 17.9118C449.927 17.9118 449.36 18.1867 448.953 18.7366C448.557 19.2745 448.357 20.0096 448.357 20.9419C448.357 21.8862 448.557 22.6333 448.953 23.1831C449.36 23.733 449.927 24.0079 450.648 24.0079C451.368 24.0079 451.925 23.733 452.322 23.1831C452.732 22.6333 452.935 21.8862 452.935 20.9419ZM460.697 25.8188C460.049 25.8068 459.508 25.7351 459.075 25.6037C458.653 25.4722 458.318 25.2869 458.066 25.0478C457.814 24.7968 457.634 24.492 457.525 24.1334C457.427 23.7629 457.381 23.3445 457.381 22.8783V12.0846L459.56 11.726V22.466C459.56 22.7289 459.58 22.9501 459.616 23.1294C459.662 23.3087 459.741 23.4641 459.849 23.5955C459.957 23.7151 460.101 23.8107 460.281 23.8824C460.475 23.9422 460.714 23.99 461.002 24.0258L460.697 25.8188ZM471.291 20.9419C471.291 21.683 471.183 22.3584 470.967 22.968C470.751 23.5776 470.446 24.0976 470.049 24.5279C469.653 24.9582 469.171 25.2929 468.608 25.5319C468.054 25.771 467.441 25.8905 466.769 25.8905C466.094 25.8905 465.482 25.771 464.931 25.5319C464.377 25.2929 463.902 24.9582 463.506 24.5279C463.109 24.0976 462.798 23.5776 462.568 22.968C462.352 22.3584 462.244 21.683 462.244 20.9419C462.244 20.2008 462.352 19.5314 462.568 18.9338C462.798 18.3242 463.109 17.8042 463.506 17.3739C463.915 16.9436 464.394 16.6149 464.947 16.3878C465.501 16.1487 466.107 16.0292 466.769 16.0292C467.428 16.0292 468.034 16.1487 468.588 16.3878C469.152 16.6149 469.633 16.9436 470.03 17.3739C470.426 17.8042 470.734 18.3242 470.95 18.9338C471.177 19.5314 471.291 20.2008 471.291 20.9419ZM469.056 20.9419C469.056 20.0096 468.853 19.2745 468.444 18.7366C468.047 18.1867 467.49 17.9118 466.769 17.9118C466.048 17.9118 465.482 18.1867 465.075 18.7366C464.679 19.2745 464.479 20.0096 464.479 20.9419C464.479 21.8862 464.679 22.6333 465.075 23.1831C465.482 23.733 466.048 24.0079 466.769 24.0079C467.49 24.0079 468.047 23.733 468.444 23.1831C468.853 22.6333 469.056 21.8862 469.056 20.9419ZM475.25 20.7088C475.25 21.6292 475.45 22.3046 475.846 22.7349C476.252 23.1532 476.777 23.3624 477.412 23.3624C477.76 23.3624 478.084 23.3146 478.386 23.219C478.697 23.1234 478.949 23.0098 479.142 22.8783V18.0194C478.985 17.9835 478.795 17.9536 478.566 17.9297C478.336 17.8939 478.048 17.8759 477.701 17.8759C476.908 17.8759 476.302 18.1389 475.882 18.6649C475.459 19.1788 475.25 19.8602 475.25 20.7088ZM481.325 24.6892C481.325 26.1834 480.938 27.2771 480.171 27.9704C479.414 28.6637 478.248 29.0103 476.675 29.0103C476.098 29.0103 475.531 28.9625 474.981 28.8669C474.44 28.7713 473.945 28.6457 473.503 28.4903L473.9 26.6436C474.27 26.799 474.693 26.9245 475.161 27.0201C475.64 27.1157 476.157 27.1635 476.711 27.1635C477.586 27.1635 478.212 26.9842 478.585 26.6257C478.956 26.2671 479.142 25.7351 479.142 25.0299V24.6713C478.926 24.7789 478.638 24.8865 478.277 24.994C477.93 25.1016 477.527 25.1554 477.072 25.1554C476.469 25.1554 475.918 25.0598 475.413 24.8685C474.919 24.6773 474.493 24.3964 474.132 24.0258C473.785 23.6553 473.506 23.1951 473.303 22.6453C473.11 22.0835 473.015 21.438 473.015 20.7088C473.015 20.0275 473.116 19.4 473.323 18.8262C473.539 18.2525 473.844 17.7624 474.24 17.356C474.65 16.9496 475.141 16.6328 475.718 16.4057C476.295 16.1786 476.95 16.065 477.684 16.065C478.392 16.065 479.064 16.1188 479.703 16.2264C480.339 16.334 480.879 16.4475 481.325 16.5671V24.6892ZM486.296 25.6395H484.117V16.2623H486.296V25.6395ZM486.532 13.519C486.532 13.9254 486.397 14.2482 486.135 14.4872C485.87 14.7263 485.558 14.8458 485.198 14.8458C484.824 14.8458 484.507 14.7263 484.241 14.4872C483.979 14.2482 483.845 13.9254 483.845 13.519C483.845 13.1007 483.979 12.7719 484.241 12.5329C484.507 12.2938 484.824 12.1743 485.198 12.1743C485.558 12.1743 485.87 12.2938 486.135 12.5329C486.397 12.7719 486.532 13.1007 486.532 13.519ZM492.394 24.1155C493.069 24.1155 493.577 24.0796 493.927 24.0079V21.6053C493.806 21.5695 493.632 21.5336 493.403 21.4977C493.177 21.4619 492.925 21.444 492.646 21.444C492.407 21.444 492.161 21.4619 491.909 21.4977C491.666 21.5336 491.447 21.5994 491.24 21.695C491.05 21.7906 490.893 21.9281 490.772 22.1074C490.654 22.2747 490.592 22.4898 490.592 22.7528C490.592 23.2668 490.755 23.6254 491.08 23.8286C491.404 24.0199 491.843 24.1155 492.394 24.1155ZM492.214 16.0292C492.934 16.0292 493.541 16.1188 494.035 16.2981C494.527 16.4774 494.917 16.7284 495.205 17.0512C495.507 17.3739 495.716 17.7684 495.838 18.2345C495.969 18.6887 496.034 19.1908 496.034 19.7406V25.4244C495.7 25.4961 495.189 25.5798 494.504 25.6754C493.829 25.783 493.069 25.8367 492.214 25.8367C491.65 25.8367 491.132 25.783 490.664 25.6754C490.195 25.5678 489.792 25.3945 489.458 25.1554C489.133 24.9164 488.875 24.6056 488.681 24.2231C488.501 23.8406 488.412 23.3684 488.412 22.8066C488.412 22.2687 488.514 21.8145 488.717 21.444C488.934 21.0734 489.222 20.7746 489.582 20.5475C489.943 20.3084 490.359 20.1411 490.827 20.0454C491.306 19.9379 491.807 19.8841 492.322 19.8841C492.564 19.8841 492.816 19.902 493.079 19.9379C493.344 19.9618 493.626 20.0096 493.927 20.0813V19.7227C493.927 19.4717 493.898 19.2326 493.836 19.0055C493.777 18.7784 493.668 18.5812 493.511 18.4138C493.367 18.2345 493.17 18.0971 492.918 18.0014C492.676 17.9058 492.371 17.858 491.997 17.858C491.493 17.858 491.031 17.8939 490.611 17.9656C490.189 18.0373 489.848 18.121 489.582 18.2166L489.314 16.4595C489.589 16.3639 489.992 16.2682 490.519 16.1726C491.05 16.077 491.614 16.0292 492.214 16.0292ZM506.507 22.3404C506.507 21.8862 506.572 21.4739 506.704 21.1033C506.848 20.7327 507.034 20.3981 507.264 20.0992C507.503 19.8004 507.775 19.5374 508.073 19.3103C508.388 19.0832 508.712 18.88 509.046 18.7007C508.686 18.3182 508.391 17.9118 508.165 17.4815C507.949 17.0512 507.841 16.597 507.841 16.1188C507.841 15.1148 508.145 14.3318 508.758 13.77C509.384 13.2082 510.2 12.9273 511.209 12.9273C511.727 12.9273 512.182 12.9991 512.579 13.1425C512.988 13.2859 513.326 13.4832 513.588 13.7342C513.853 13.9852 514.05 14.284 514.184 14.6307C514.329 14.9654 514.401 15.324 514.401 15.7064C514.401 16.0889 514.335 16.4475 514.201 16.7822C514.083 17.1169 513.912 17.4277 513.696 17.7146C513.48 17.9895 513.228 18.2465 512.939 18.4856C512.664 18.7127 512.363 18.9159 512.038 19.0952L514.509 21.5695C514.676 21.2587 514.814 20.912 514.922 20.5295C515.03 20.1351 515.115 19.7526 515.174 19.382L516.996 19.6151C516.934 20.0933 516.809 20.6252 516.616 21.2109C516.426 21.7846 516.173 22.3345 515.859 22.8604C516.255 23.3027 516.635 23.7629 516.996 24.241C517.366 24.7072 517.674 25.1733 517.913 25.6395H515.643C515.525 25.4363 515.367 25.2152 515.174 24.9761C514.994 24.7371 514.804 24.5159 514.597 24.3127C514.106 24.755 513.542 25.1136 512.903 25.3885C512.268 25.6634 511.547 25.8009 510.741 25.8009C509.938 25.8009 509.263 25.6933 508.722 25.4781C508.181 25.263 507.742 24.9881 507.408 24.6534C507.084 24.3187 506.848 23.9482 506.704 23.5417C506.572 23.1353 506.507 22.7349 506.507 22.3404ZM508.597 22.197C508.597 22.4002 508.634 22.6094 508.706 22.8245C508.788 23.0397 508.915 23.2429 509.082 23.4342C509.263 23.6135 509.492 23.7629 509.767 23.8824C510.056 24.0019 510.4 24.0617 510.796 24.0617C511.337 24.0617 511.822 23.978 512.254 23.8107C512.7 23.6433 513.077 23.4043 513.391 23.0935L510.22 19.8841C510.039 19.9797 509.852 20.0933 509.659 20.2247C509.469 20.3562 509.292 20.5176 509.138 20.7088C508.981 20.8881 508.85 21.1033 508.742 21.3543C508.643 21.5934 508.597 21.8743 508.597 22.197ZM512.507 15.7961C512.507 15.4495 512.392 15.1566 512.166 14.9175C511.937 14.6665 511.606 14.541 511.173 14.541C510.718 14.541 510.37 14.6785 510.128 14.9534C509.889 15.2283 509.767 15.575 509.767 15.9933C509.767 16.34 509.866 16.6866 510.056 17.0332C510.249 17.3679 510.514 17.6907 510.849 18.0014C511.078 17.8819 511.288 17.7504 511.481 17.607C511.684 17.4636 511.858 17.3022 512.002 17.1229C512.159 16.9436 512.281 16.7464 512.363 16.5312C512.461 16.3161 512.507 16.071 512.507 15.7961ZM530.988 23.9541C531.804 23.9541 532.4 23.8167 532.77 23.5417C533.144 23.2668 533.331 22.8783 533.331 22.3763C533.331 22.0775 533.265 21.8205 533.131 21.6053C533.013 21.3902 532.833 21.1989 532.59 21.0316C532.364 20.8523 532.079 20.6909 531.745 20.5475C531.407 20.3921 531.024 20.2427 530.591 20.0992C530.159 19.9438 529.736 19.7765 529.33 19.5972C528.933 19.4059 528.579 19.1728 528.265 18.8979C527.967 18.623 527.718 18.2943 527.527 17.9118C527.347 17.5293 527.256 17.0691 527.256 16.5312C527.256 15.4076 527.646 14.529 528.429 13.8955C529.208 13.2501 530.273 12.9273 531.617 12.9273C532.4 12.9273 533.088 13.017 533.691 13.1963C534.304 13.3636 534.782 13.5489 535.133 13.7521L534.428 15.5809C534.022 15.3538 533.57 15.1805 533.078 15.061C532.597 14.9414 532.099 14.8817 531.581 14.8817C530.968 14.8817 530.49 15.0072 530.139 15.2582C529.805 15.5092 529.635 15.8618 529.635 16.3161C529.635 16.591 529.69 16.8301 529.798 17.0332C529.916 17.2245 530.08 17.3978 530.283 17.5532C530.5 17.7086 530.745 17.852 531.024 17.9835C531.312 18.115 531.623 18.2405 531.961 18.36C532.548 18.5752 533.072 18.7963 533.527 19.0234C533.996 19.2386 534.386 19.5016 534.7 19.8124C535.025 20.1112 535.271 20.4698 535.438 20.8881C535.608 21.2946 535.69 21.7906 535.69 22.3763C535.69 23.4999 535.287 24.3725 534.484 24.994C533.691 25.6037 532.525 25.9085 530.988 25.9085C530.47 25.9085 529.995 25.8726 529.562 25.8009C529.143 25.7411 528.763 25.6634 528.429 25.5678C528.104 25.4722 527.822 25.3765 527.58 25.2809C527.341 25.1733 527.147 25.0777 527.003 24.994L527.672 23.1473C527.996 23.3266 528.435 23.5059 528.986 23.6852C529.539 23.8645 530.205 23.9541 530.988 23.9541ZM546.11 20.9419C546.11 21.683 546.002 22.3584 545.786 22.968C545.569 23.5776 545.261 24.0976 544.865 24.5279C544.469 24.9582 543.987 25.2929 543.423 25.5319C542.869 25.771 542.257 25.8905 541.585 25.8905C540.913 25.8905 540.3 25.771 539.747 25.5319C539.193 25.2929 538.721 24.9582 538.325 24.5279C537.928 24.0976 537.613 23.5776 537.387 22.968C537.171 22.3584 537.063 21.683 537.063 20.9419C537.063 20.2008 537.171 19.5314 537.387 18.9338C537.613 18.3242 537.928 17.8042 538.325 17.3739C538.731 16.9436 539.213 16.6149 539.766 16.3878C540.317 16.1487 540.923 16.0292 541.585 16.0292C542.247 16.0292 542.853 16.1487 543.407 16.3878C543.97 16.6149 544.452 16.9436 544.849 17.3739C545.245 17.8042 545.55 18.3242 545.766 18.9338C545.995 19.5314 546.11 20.2008 546.11 20.9419ZM543.875 20.9419C543.875 20.0096 543.669 19.2745 543.263 18.7366C542.866 18.1867 542.306 17.9118 541.585 17.9118C540.864 17.9118 540.3 18.1867 539.891 18.7366C539.494 19.2745 539.298 20.0096 539.298 20.9419C539.298 21.8862 539.494 22.6333 539.891 23.1831C540.3 23.733 540.864 24.0079 541.585 24.0079C542.306 24.0079 542.866 23.733 543.263 23.1831C543.669 22.6333 543.875 21.8862 543.875 20.9419ZM551.635 25.8188C550.986 25.8068 550.445 25.7351 550.013 25.6037C549.593 25.4722 549.256 25.2869 549.004 25.0478C548.751 24.7968 548.571 24.492 548.463 24.1334C548.368 23.7629 548.319 23.3445 548.319 22.8783V12.0846L550.501 11.726V22.466C550.501 22.7289 550.517 22.9501 550.554 23.1294C550.603 23.3087 550.681 23.4641 550.789 23.5955C550.898 23.7151 551.042 23.8107 551.222 23.8824C551.412 23.9422 551.654 23.99 551.943 24.0258L551.635 25.8188ZM561.436 25.3526C561.016 25.4602 560.469 25.5678 559.797 25.6754C559.126 25.7949 558.385 25.8547 557.579 25.8547C556.822 25.8547 556.186 25.7471 555.669 25.5319C555.164 25.3168 554.758 25.0179 554.443 24.6355C554.145 24.253 553.929 23.7987 553.794 23.2728C553.663 22.7349 553.598 22.1492 553.598 21.5157V16.2623H555.777V21.175C555.777 22.1791 555.921 22.8963 556.209 23.3266C556.511 23.7569 557.028 23.972 557.759 23.972C558.025 23.972 558.3 23.9601 558.588 23.9362C558.89 23.9123 559.112 23.8824 559.257 23.8465V16.2623H561.436V25.3526ZM568.54 26.3388C568.923 26.5181 569.189 26.7213 569.333 26.9484C569.487 27.1755 569.565 27.4564 569.565 27.7911C569.565 28.2094 569.385 28.568 569.025 28.8669C568.664 29.1657 568.124 29.3151 567.403 29.3151C566.826 29.3151 566.315 29.2374 565.872 29.082L566.125 27.7911C566.243 27.8269 566.4 27.8688 566.593 27.9166C566.783 27.9644 566.983 27.9883 567.186 27.9883C567.39 27.9883 567.547 27.9524 567.655 27.8807C567.776 27.809 567.835 27.7014 567.835 27.558C567.835 27.3667 567.75 27.2233 567.583 27.1277C567.416 27.044 567.245 26.9723 567.078 26.9125L566.898 26.8587C566.947 26.7033 567.013 26.524 567.098 26.3208C567.18 26.1296 567.265 25.9503 567.35 25.783C566.724 25.6754 566.184 25.4841 565.728 25.2092C565.27 24.9343 564.893 24.5876 564.591 24.1693C564.29 23.739 564.064 23.2549 563.906 22.717C563.762 22.1791 563.69 21.5934 563.69 20.9599C563.69 20.2666 563.798 19.6211 564.015 19.0234C564.231 18.4138 564.539 17.8879 564.935 17.4456C565.342 17.0034 565.836 16.6567 566.413 16.4057C566.99 16.1547 567.639 16.0292 568.36 16.0292C569.248 16.0292 570.09 16.1905 570.883 16.5133L570.414 18.2883C570.162 18.1807 569.873 18.0911 569.549 18.0194C569.234 17.9477 568.9 17.9118 568.54 17.9118C567.685 17.9118 567.036 18.1807 566.593 18.7186C566.148 19.2446 565.925 19.9916 565.925 20.9599C565.925 21.8922 566.135 22.6333 566.557 23.1831C566.977 23.721 567.685 23.99 568.684 23.99C569.054 23.99 569.421 23.9541 569.782 23.8824C570.142 23.8107 570.453 23.721 570.719 23.6135L571.027 25.4064C570.811 25.514 570.49 25.6096 570.07 25.6933C569.651 25.777 569.212 25.8308 568.756 25.8547C568.707 25.9503 568.664 26.0399 568.628 26.1236C568.592 26.2073 568.563 26.279 568.54 26.3388ZM581.044 20.9419C581.044 21.683 580.936 22.3584 580.72 22.968C580.503 23.5776 580.199 24.0976 579.802 24.5279C579.406 24.9582 578.924 25.2929 578.36 25.5319C577.807 25.771 577.194 25.8905 576.522 25.8905C575.847 25.8905 575.234 25.771 574.684 25.5319C574.13 25.2929 573.655 24.9582 573.258 24.5279C572.862 24.0976 572.551 23.5776 572.321 22.968C572.105 22.3584 571.997 21.683 571.997 20.9419C571.997 20.2008 572.105 19.5314 572.321 18.9338C572.551 18.3242 572.862 17.8042 573.258 17.3739C573.668 16.9436 574.146 16.6149 574.7 16.3878C575.254 16.1487 575.86 16.0292 576.522 16.0292C577.181 16.0292 577.787 16.1487 578.341 16.3878C578.904 16.6149 579.386 16.9436 579.782 17.3739C580.179 17.8042 580.487 18.3242 580.703 18.9338C580.929 19.5314 581.044 20.2008 581.044 20.9419ZM578.809 20.9419C578.809 20.0096 578.606 19.2745 578.196 18.7366C577.8 18.1867 577.243 17.9118 576.522 17.9118C575.801 17.9118 575.234 18.1867 574.828 18.7366C574.431 19.2745 574.232 20.0096 574.232 20.9419C574.232 21.8862 574.431 22.6333 574.828 23.1831C575.234 23.733 575.801 24.0079 576.522 24.0079C577.243 24.0079 577.8 23.733 578.196 23.1831C578.606 22.6333 578.809 21.8862 578.809 20.9419ZM579.674 12.9094C579.602 13.0767 579.507 13.262 579.386 13.4652C579.278 13.6565 579.14 13.8418 578.973 14.0211C578.803 14.1884 578.613 14.3318 578.396 14.4514C578.18 14.5709 577.938 14.6307 577.675 14.6307C577.459 14.6307 577.253 14.6008 577.063 14.541C576.869 14.4693 576.676 14.3916 576.486 14.3079C576.306 14.2242 576.126 14.1525 575.945 14.0928C575.775 14.021 575.608 13.9852 575.441 13.9852C575.211 13.9852 575.011 14.0629 574.844 14.2183C574.687 14.3737 574.562 14.553 574.467 14.7562L573.366 14.1107C573.425 13.9434 573.511 13.7641 573.619 13.5728C573.74 13.3696 573.884 13.1843 574.051 13.017C574.232 12.8377 574.431 12.6883 574.648 12.5687C574.864 12.4492 575.103 12.3894 575.369 12.3894C575.585 12.3894 575.788 12.4253 575.981 12.497C576.171 12.5687 576.358 12.6464 576.538 12.7301C576.732 12.8018 576.912 12.8735 577.079 12.9453C577.259 13.017 577.433 13.0528 577.603 13.0528C577.829 13.0528 578.023 12.9752 578.18 12.8198C578.347 12.6524 578.478 12.4671 578.577 12.2639L579.674 12.9094ZM582.768 20.9957C582.768 20.1709 582.889 19.4478 583.128 18.8262C583.38 18.2046 583.711 17.6907 584.121 17.2843C584.527 16.8659 584.996 16.5551 585.527 16.3519C586.054 16.1368 586.595 16.0292 587.149 16.0292C588.446 16.0292 589.456 16.4296 590.176 17.2305C590.907 18.0313 591.274 19.2266 591.274 20.8164C591.274 20.936 591.268 21.0734 591.258 21.2288C591.258 21.3722 591.251 21.5037 591.238 21.6233H585.022C585.081 22.3763 585.346 22.962 585.815 23.3804C586.293 23.7868 586.985 23.99 587.886 23.99C588.417 23.99 588.895 23.9422 589.328 23.8465C589.773 23.7509 590.121 23.6493 590.373 23.5417L590.661 25.3168C590.543 25.3765 590.373 25.4423 590.157 25.514C589.954 25.5738 589.714 25.6276 589.436 25.6754C589.174 25.7351 588.885 25.783 588.571 25.8188C588.259 25.8547 587.942 25.8726 587.617 25.8726C586.788 25.8726 586.067 25.7531 585.455 25.514C584.842 25.263 584.337 24.9223 583.941 24.492C583.544 24.0497 583.249 23.5358 583.056 22.9501C582.866 22.3524 582.768 21.7009 582.768 20.9957ZM589.095 20.0275C589.095 19.7287 589.052 19.4478 588.967 19.1848C588.885 18.9099 588.758 18.6768 588.59 18.4856C588.433 18.2824 588.237 18.127 587.994 18.0194C587.768 17.8998 587.489 17.8401 587.165 17.8401C586.831 17.8401 586.536 17.9058 586.284 18.0373C586.031 18.1569 585.815 18.3182 585.635 18.5214C585.464 18.7246 585.333 18.9577 585.238 19.2207C585.14 19.4837 585.075 19.7526 585.038 20.0275H589.095ZM595.947 24.0796C596.524 24.0796 596.946 24.0139 597.208 23.8824C597.474 23.739 597.605 23.4999 597.605 23.1652C597.605 22.8544 597.461 22.5974 597.172 22.3942C596.897 22.191 596.435 21.9699 595.786 21.7308C595.39 21.5874 595.023 21.438 594.685 21.2826C594.361 21.1153 594.079 20.924 593.84 20.7088C593.601 20.4937 593.407 20.2367 593.263 19.9379C593.132 19.6271 593.063 19.2506 593.063 18.8083C593.063 17.9477 593.384 17.2723 594.02 16.7822C594.656 16.2802 595.521 16.0292 596.615 16.0292C597.169 16.0292 597.697 16.083 598.201 16.1905C598.706 16.2862 599.083 16.3818 599.335 16.4774L598.939 18.2345C598.699 18.127 598.395 18.0313 598.021 17.9477C597.647 17.852 597.215 17.8042 596.723 17.8042C596.278 17.8042 595.917 17.8819 595.642 18.0373C595.367 18.1807 595.226 18.4079 595.226 18.7186C595.226 18.874 595.252 19.0115 595.298 19.131C595.36 19.2506 595.455 19.3641 595.586 19.4717C595.721 19.5673 595.894 19.6689 596.111 19.7765C596.327 19.8721 596.592 19.9737 596.904 20.0813C597.421 20.2726 597.857 20.4638 598.218 20.655C598.578 20.8343 598.873 21.0435 599.102 21.2826C599.342 21.5097 599.515 21.7727 599.623 22.0715C599.732 22.3703 599.787 22.7289 599.787 23.1473C599.787 24.0438 599.45 24.7251 598.778 25.1913C598.116 25.6455 597.169 25.8726 595.93 25.8726C595.101 25.8726 594.433 25.8009 593.928 25.6574C593.424 25.526 593.07 25.4184 592.867 25.3347L593.244 23.5238C593.568 23.6553 593.955 23.7808 594.397 23.9003C594.856 24.0199 595.37 24.0796 595.947 24.0796Z" fill="#FDFDFD"/>
<path d="M169.901 67.5647C169.901 62.0748 170.697 57.2612 172.288 53.1239C173.958 48.9865 176.146 45.5653 178.85 42.8601C181.554 40.0754 184.657 38.0068 188.157 36.6542C191.657 35.222 195.236 34.506 198.895 34.506C207.486 34.506 214.167 37.1713 218.94 42.5021C223.792 47.8329 226.218 55.7892 226.218 66.3712C226.218 67.1668 226.179 68.0818 226.099 69.1161C226.099 70.0709 226.059 70.9461 225.98 71.7418H184.816C185.214 76.7543 186.963 80.6529 190.066 83.4376C193.247 86.1428 197.821 87.4954 203.787 87.4954C207.287 87.4954 210.469 87.1771 213.332 86.5406C216.275 85.9041 218.582 85.2278 220.253 84.5117L222.162 96.3269C221.366 96.7248 220.253 97.1624 218.821 97.6397C217.469 98.0376 215.878 98.3956 214.048 98.7139C212.298 99.1117 210.389 99.4299 208.321 99.6686C206.253 99.9073 204.145 100.027 201.997 100.027C196.509 100.027 191.736 99.231 187.679 97.6397C183.623 95.9689 180.282 93.7013 177.657 90.837C175.032 87.8932 173.083 84.4719 171.81 80.5733C170.538 76.5951 169.901 72.2589 169.901 67.5647ZM211.781 61.12C211.781 59.1309 211.503 57.2612 210.946 55.5108C210.389 53.6808 209.554 52.1293 208.44 50.8563C207.406 49.5037 206.094 48.4694 204.503 47.7533C202.992 46.9577 201.162 46.5598 199.014 46.5598C196.787 46.5598 194.838 46.9974 193.168 47.8727C191.497 48.6683 190.066 49.7424 188.873 51.095C187.759 52.4476 186.884 53.9991 186.248 55.7495C185.611 57.4999 185.174 59.29 184.935 61.12H211.781ZM257.514 98.4752C253.536 90.2801 249.44 80.8916 245.224 70.3096C241.088 59.6481 237.31 48.2307 233.889 36.0574H249.281C250.156 39.5582 251.15 43.3375 252.264 47.3953C253.457 51.3734 254.69 55.3914 255.963 59.4492C257.315 63.4274 258.667 67.326 260.019 71.145C261.451 74.8845 262.764 78.266 263.957 81.2894C265.15 78.266 266.423 74.8845 267.775 71.145C269.127 67.326 270.44 63.4274 271.712 59.4492C273.064 55.3914 274.337 51.3734 275.53 47.3953C276.723 43.3375 277.758 39.5582 278.633 36.0574H293.547C290.127 48.2307 286.309 59.6481 282.093 70.3096C277.956 80.8916 273.9 90.2801 269.923 98.4752H257.514ZM359.367 67.2066C359.367 72.1396 358.652 76.6349 357.22 80.6927C355.788 84.7504 353.76 88.2114 351.135 91.0757C348.509 93.94 345.327 96.1678 341.589 97.7591C337.929 99.3504 333.874 100.146 329.418 100.146C324.966 100.146 320.908 99.3504 317.249 97.7591C313.59 96.1678 310.448 93.94 307.823 91.0757C305.198 88.2114 303.13 84.7504 301.618 80.6927C300.187 76.6349 299.471 72.1396 299.471 67.2066C299.471 62.2737 300.187 57.8181 301.618 53.8399C303.13 49.7822 305.198 46.3212 307.823 43.4569C310.527 40.5926 313.709 38.4046 317.368 36.8929C321.027 35.3016 325.044 34.506 329.418 34.506C333.793 34.506 337.809 35.3016 341.47 36.8929C345.208 38.4046 348.389 40.5926 351.015 43.4569C353.64 46.3212 355.668 49.7822 357.1 53.8399C358.61 57.8181 359.367 62.2737 359.367 67.2066ZM344.571 67.2066C344.571 61.0007 343.219 56.1075 340.516 52.5271C337.89 48.8672 334.191 47.0372 329.418 47.0372C324.646 47.0372 320.908 48.8672 318.203 52.5271C315.578 56.1075 314.266 61.0007 314.266 67.2066C314.266 73.4922 315.578 78.4649 318.203 82.1248C320.908 85.7847 324.646 87.6147 329.418 87.6147C334.191 87.6147 337.89 85.7847 340.516 82.1248C343.219 78.4649 344.571 73.4922 344.571 67.2066ZM395.957 99.6686C391.66 99.589 388.08 99.1117 385.219 98.2365C382.435 97.3613 380.207 96.128 378.535 94.5368C376.867 92.8659 375.673 90.837 374.956 88.4501C374.322 85.9837 374.002 83.1989 374.002 80.0959V8.24993L388.439 5.86302V77.351C388.439 79.1014 388.559 80.5733 388.798 81.7668C389.115 82.9602 389.632 83.9946 390.347 84.8698C391.065 85.6654 392.019 86.3019 393.212 86.7793C394.486 87.1771 396.077 87.4954 397.985 87.7341L395.957 99.6686Z" fill="#FDFDFD"/>
<path d="M409.664 38.0863C412.448 37.2907 416.066 36.5348 420.519 35.8187C424.975 35.1027 429.906 34.7446 435.315 34.7446C440.405 34.7446 444.663 35.4607 448.081 36.8929C451.502 38.2454 454.208 40.1947 456.197 42.7408C458.263 45.2073 459.696 48.2307 460.491 51.811C461.367 55.3118 461.804 59.1707 461.804 63.3876V98.4752H447.366V65.6551C447.366 62.3135 447.127 59.4889 446.652 57.1816C446.254 54.7947 445.536 52.8852 444.501 51.453C443.548 49.9413 442.196 48.8672 440.447 48.2307C438.775 47.5146 436.709 47.1566 434.242 47.1566C432.411 47.1566 430.504 47.2759 428.515 47.5146C426.527 47.7533 425.055 47.9522 424.098 48.1113V98.4752H409.664V38.0863ZM475.999 67.5647C475.999 62.0748 476.794 57.2612 478.385 53.1238C480.054 48.9865 482.243 45.5653 484.946 42.8601C487.649 40.0754 490.753 38.0067 494.252 36.6542C497.754 35.222 501.333 34.5059 504.99 34.5059C513.582 34.5059 520.262 37.1713 525.035 42.5021C529.888 47.8329 532.313 55.7892 532.313 66.3712C532.313 67.1668 532.275 68.0818 532.194 69.1161C532.194 70.0709 532.155 70.9461 532.077 71.7417H490.912C491.309 76.7543 493.059 80.6529 496.163 83.4376C499.345 86.1428 503.917 87.4954 509.883 87.4954C513.385 87.4954 516.566 87.1771 519.428 86.5406C522.37 85.9041 524.679 85.2278 526.348 84.5117L528.259 96.3269C527.463 96.7248 526.348 97.1624 524.918 97.6397C523.564 98.0376 521.973 98.3956 520.146 98.7138C518.393 99.1117 516.486 99.4299 514.416 99.6686C512.35 99.9073 510.242 100.027 508.095 100.027C502.604 100.027 497.831 99.231 493.777 97.6397C489.719 95.9689 486.378 93.7013 483.753 90.837C481.127 87.8932 479.181 84.4719 477.907 80.5733C476.633 76.5951 475.999 72.2589 475.999 67.5647ZM517.876 61.12C517.876 59.1309 517.598 57.2612 517.042 55.5108C516.485 53.6808 515.651 52.1293 514.536 50.8563C513.501 49.5037 512.191 48.4694 510.6 47.7533C509.087 46.9577 507.257 46.5598 505.11 46.5598C502.882 46.5598 500.936 46.9974 499.264 47.8726C497.592 48.6683 496.163 49.7424 494.97 51.095C493.854 52.4476 492.981 53.9991 492.344 55.7495C491.707 57.4999 491.271 59.29 491.031 61.12H517.876ZM570.051 56.4655L583.296 36.0574H598.451L577.928 65.5358C582.222 71.1052 586.319 76.7543 590.219 82.4829C594.196 88.1319 597.455 93.4626 600 98.4752H584.369C583.655 96.9634 582.701 95.2528 581.508 93.3433C580.392 91.3542 579.16 89.3253 577.809 87.2567C576.535 85.1085 575.183 83 573.751 80.9314C572.321 78.8627 570.928 76.9134 569.576 75.0834C566.792 78.6638 564.047 82.642 561.344 87.018C558.718 91.3144 556.529 95.1335 554.78 98.4752H539.986C541.18 96.0882 542.609 93.5422 544.281 90.837C545.952 88.1319 547.74 85.3869 549.651 82.6022C551.559 79.7379 553.509 76.9134 555.497 74.1287C557.564 71.2644 559.594 68.5592 561.583 66.0132L540.94 36.0574H556.81L570.051 56.4655Z" fill="#3ECF8E"/>
<path fill-rule="evenodd" clip-rule="evenodd" d="M19.9343 67.3759C19.9343 41.1723 41.1705 19.9343 67.3616 19.9343C76.3045 19.9343 84.6697 22.4103 91.8091 26.7147L51.5779 67.3904C51.5779 67.3904 57.8208 76.3478 63.8047 77.7256C66.3275 78.3065 67.4243 78.3007 69.9484 77.7256C72.9503 77.0419 76.092 74.653 76.092 74.653L100.686 49.4171L100.667 49.3974L103.332 46.7022L107.627 42.2954L107.652 42.335L121.945 27.8842C109.705 10.9897 89.8172 0 67.3616 0C30.1565 0 0 30.1676 0 67.3759C0 104.584 30.1565 134.752 67.3616 134.752C96.8836 134.752 121.967 115.757 131.069 89.3229L108.529 90.9491C100.35 105.211 84.9761 114.818 67.3616 114.818C41.1705 114.818 19.9343 93.5795 19.9343 67.3759ZM114.236 74.6433L134.476 73.183C134.64 71.269 134.723 69.3322 134.723 67.3759C134.723 58.5349 133.021 50.0915 129.926 42.3557L113.96 58.4979C114.504 61.3738 114.789 64.3415 114.789 67.3759C114.789 69.8471 114.6 72.2741 114.236 74.6433Z" fill="#3ECF8E"/>
</svg>
